<svg width="24" height="24" viewBox="0 0 48 48" fill="none" xmlns="http://www.w3.org/2000/svg">
<path d="M29.6464 36.3536L30 36.7071L30.7071 36L30.3536 35.6464L29.6464 36.3536ZM18 24L17.6464 23.6464C17.4512 23.8417 17.4512 24.1583 17.6464 24.3536L18 24ZM30.3536 12.3536C30.5488 12.1583 30.5488 11.8417 30.3536 11.6464C30.1583 11.4512 29.8417 11.4512 29.6464 11.6464L30.3536 12.3536ZM30.3536 35.6464L18.3536 23.6464L17.6464 24.3536L29.6464 36.3536L30.3536 35.6464ZM18.3536 24.3536L30.3536 12.3536L29.6464 11.6464L17.6464 23.6464L18.3536 24.3536Z" fill="#333333"/>
</svg>
