<svg width="24" height="24" viewBox="0 0 24 24" fill="none" xmlns="http://www.w3.org/2000/svg">
<path d="M7.35355 11.6464C7.15829 11.4512 6.84171 11.4512 6.64645 11.6464C6.45118 11.8417 6.45118 12.1583 6.64645 12.3536L7.35355 11.6464ZM12 17L11.6464 17.3536C11.8417 17.5488 12.1583 17.5488 12.3536 17.3536L12 17ZM17.3536 12.3536L17.7071 12L17 11.2929L16.6464 11.6464L17.3536 12.3536ZM6.64645 12.3536L11.6464 17.3536L12.3536 16.6464L7.35355 11.6464L6.64645 12.3536ZM12.3536 17.3536L17.3536 12.3536L16.6464 11.6464L11.6464 16.6464L12.3536 17.3536Z" fill="white"/>
<path d="M7.35355 5.64645C7.15829 5.45118 6.84171 5.45118 6.64645 5.64645C6.45118 5.84171 6.45118 6.15829 6.64645 6.35355L7.35355 5.64645ZM12 11L11.6464 11.3536C11.8417 11.5488 12.1583 11.5488 12.3536 11.3536L12 11ZM17.3536 6.35355L17.7071 6L17 5.29289L16.6464 5.64645L17.3536 6.35355ZM6.64645 6.35355L11.6464 11.3536L12.3536 10.6464L7.35355 5.64645L6.64645 6.35355ZM12.3536 11.3536L17.3536 6.35355L16.6464 5.64645L11.6464 10.6464L12.3536 11.3536Z" fill="white"/>
</svg>
