<svg width="24" height="24" viewBox="0 0 48 48" fill="none" xmlns="http://www.w3.org/2000/svg">
<path d="M18.3536 36.3536L18 36.7071L17.2929 36L17.6464 35.6464L18.3536 36.3536ZM30 24L30.3536 23.6464C30.5488 23.8417 30.5488 24.1583 30.3536 24.3536L30 24ZM17.6464 12.3536C17.4512 12.1583 17.4512 11.8417 17.6464 11.6464C17.8417 11.4512 18.1583 11.4512 18.3536 11.6464L17.6464 12.3536ZM17.6464 35.6464L29.6464 23.6464L30.3536 24.3536L18.3536 36.3536L17.6464 35.6464ZM29.6464 24.3536L17.6464 12.3536L18.3536 11.6464L30.3536 23.6464L29.6464 24.3536Z" fill="#333333"/>
</svg>
