<svg width="24" height="24" viewBox="0 0 24 24" fill="none" xmlns="http://www.w3.org/2000/svg">
<path d="M5.7677 9.89307C5.52799 9.89307 5.31492 9.98752 5.15512 10.1629C4.982 10.3383 4.9021 10.5542 4.9021 10.8106C4.9021 11.067 4.982 11.2694 5.15512 11.4583C5.32824 11.6337 5.52799 11.7282 5.7677 11.7282C6.0074 11.7282 6.22047 11.6337 6.39359 11.4583C6.56671 11.2829 6.65993 11.067 6.65993 10.8106C6.65993 10.5542 6.56671 10.3383 6.39359 10.1629C6.22047 9.97403 6.02072 9.89307 5.7677 9.89307Z" fill="white"/>
<path d="M13.2385 9.87939C12.9988 9.87939 12.7857 9.97385 12.6259 10.1493C12.4528 10.3247 12.3729 10.5406 12.3729 10.7969C12.3729 11.0533 12.4528 11.2557 12.6259 11.4446C12.799 11.62 12.9988 11.7145 13.2385 11.7145C13.4782 11.7145 13.6912 11.62 13.8644 11.4446C14.0375 11.2692 14.1307 11.0533 14.1307 10.7969C14.1307 10.5406 14.0375 10.3382 13.8644 10.1493C13.7046 9.96035 13.4915 9.87939 13.2385 9.87939Z" fill="white"/>
<path d="M18.2323 9.89307C17.9926 9.89307 17.7795 9.98752 17.6197 10.1629C17.4466 10.3383 17.3667 10.5542 17.3667 10.8106C17.3667 11.067 17.4466 11.2694 17.6197 11.4583C17.7928 11.6337 17.9926 11.7282 18.2323 11.7282C18.472 11.7282 18.6851 11.6337 18.8582 11.4583C19.0313 11.2829 19.1245 11.067 19.1245 10.8106C19.1245 10.5542 19.0313 10.3383 18.8582 10.1629C18.6851 9.97403 18.472 9.89307 18.2323 9.89307Z" fill="white"/>
<path d="M20.4429 3.22754H3.5571C2.26536 3.22754 1.20001 4.307 1.20001 5.61584V15.2905C1.20001 16.5994 2.26536 17.6788 3.5571 17.6788H10.1889C10.1889 17.6788 11.4673 21.2275 11.9334 21.2275C12.3995 21.2275 13.7845 17.6788 13.7845 17.6788H20.4429C21.7347 17.6788 22.8 16.5994 22.8 15.2905V5.61584C22.8 4.307 21.7347 3.22754 20.4429 3.22754ZM7.47227 12.1601C7.13935 12.5379 6.61999 12.6998 6.06068 12.6998C5.55464 12.6998 5.18176 12.5514 4.91543 12.3355H4.90211V12.6054H3.637V7.00565H4.90211V9.15108H4.92874C5.27498 8.85423 5.72776 8.75977 6.26043 8.73279C6.71321 8.71929 7.19261 9.00265 7.48559 9.33998C7.76524 9.67731 7.97831 10.2036 7.97831 10.7838C7.97831 11.4179 7.81851 11.7823 7.47227 12.1601ZM10.2022 12.6593H8.91049C8.91049 12.6593 8.91049 9.71779 8.91049 9.19156C8.91049 8.39545 8.2846 8.28751 8.2846 8.28751V6.8977C8.2846 6.8977 10.0957 7.00565 10.2022 9.23204C10.2022 9.86622 10.2022 12.6593 10.2022 12.6593ZM15.276 11.5934C15.1694 11.8497 15.0096 12.0656 14.7966 12.268C14.5968 12.4569 14.3571 12.6054 14.0908 12.7133C13.8244 12.8212 13.5448 12.8752 13.2518 12.8752C12.9588 12.8752 12.6792 12.8212 12.4262 12.7133C12.1598 12.6054 11.9201 12.4569 11.7204 12.268C11.5073 12.0656 11.3475 11.8362 11.2409 11.5934C11.1344 11.3505 11.0811 11.0806 11.0811 10.7973C11.0811 10.5139 11.1344 10.2575 11.2409 10.0012C11.3475 9.75827 11.5073 9.52889 11.7204 9.32649C11.9334 9.13758 12.1598 8.98916 12.4262 8.88121C12.6925 8.77327 12.9721 8.71929 13.2518 8.71929C13.5448 8.71929 13.8244 8.77327 14.0908 8.88121C14.3571 8.98916 14.5968 9.13758 14.7966 9.32649C15.0096 9.52889 15.1561 9.74478 15.276 10.0012C15.3825 10.2575 15.4358 10.5139 15.4358 10.7973C15.4358 11.0806 15.3825 11.337 15.276 11.5934ZM20.363 12.1466C20.363 13.1316 20.1766 13.7253 19.7504 14.1436C19.2311 14.6428 18.4987 14.6698 17.8861 14.5889V13.5769C18.4054 13.6308 19.1112 13.28 19.1112 12.6054V12.349H19.0979C18.8049 12.7538 18.3921 12.9022 17.8195 12.9022C17.3001 12.9022 16.8474 12.7133 16.5411 12.349C16.2348 11.9847 16.0883 11.4989 16.0883 10.8917C16.0883 10.2036 16.2614 9.66382 16.5943 9.25902C16.9406 8.85423 17.42 8.66532 17.9793 8.66532C18.472 8.66532 18.7916 8.78676 19.0979 9.07012H19.1112V8.75977H20.3763V12.1466H20.363Z" fill="white"/>
</svg>
